<?xml version="1.0" encoding="utf-8"?>
<!-- Generator: Adobe Illustrator 25.0.0, SVG Export Plug-In . SVG Version: 6.00 Build 0)  -->
<svg version="1.1" id="Capa_1" xmlns="http://www.w3.org/2000/svg" xmlns:xlink="http://www.w3.org/1999/xlink" x="0px" y="0px"
	 viewBox="0 0 94.11 35.15" style="enable-background:new 0 0 94.11 35.15;" xml:space="preserve">
<style type="text/css">
	.st0{fill:#E42529;}
	.st1{display:none;fill:#575756;}
	.st2{display:none;fill:#555454;}
	.st3{fill:#FFFFFF;}
</style>
<g>
	<path class="st0" d="M8.79,9.79c0.01,0.09,0.04,0.17,0.04,0.26c0,0.37-0.33,0.6-0.68,0.6c-0.38,0-0.51-0.23-0.58-0.41l-1-2.72H2.78
		l-0.97,2.72c-0.06,0.19-0.21,0.41-0.58,0.41c-0.48,0-0.71-0.34-0.71-0.61c0-0.07,0.03-0.16,0.06-0.24l3.29-8.92
		c0.11-0.31,0.26-0.44,0.81-0.44s0.68,0.19,0.78,0.44L8.79,9.79z M6.14,6.36L4.66,2.31L3.2,6.36H6.14z"/>
	<path class="st0" d="M11.83,6.38V10c0,0.11-0.03,0.23-0.07,0.33c-0.06,0.11-0.23,0.31-0.58,0.31c-0.6,0-0.67-0.46-0.67-0.64V1.17
		c0-0.16,0-0.33,0.16-0.5C10.82,0.5,11,0.5,11.17,0.5h3.1c0.87,0,2.01,0.04,2.77,0.68c0.5,0.4,0.91,1.12,0.91,2.19
		c0,0.36-0.03,1.35-0.95,2.03c-0.37,0.27-0.63,0.33-0.9,0.38c0.31,0.03,0.8,0.1,1.17,0.65c0.27,0.41,0.34,0.9,0.41,1.37l0.09,0.57
		c0.08,0.48,0.08,0.53,0.17,0.95c0.04,0.2,0.09,0.46,0.09,0.63c0,0.54-0.31,0.7-0.64,0.7c-0.4,0-0.61-0.28-0.77-0.81
		c-0.16-0.53-0.23-1.14-0.28-1.59c-0.26-1.81-0.74-1.88-2.84-1.88H11.83z M11.83,5.24h2.01c0.53,0,1.14,0,1.56-0.1
		c0.65-0.16,1.18-0.7,1.18-1.69c0-0.73-0.27-1.05-0.34-1.14c-0.51-0.61-1.48-0.63-2.9-0.63h-1.51V5.24z"/>
	<path class="st0" d="M23.56,9.99c-0.01,0.2-0.06,0.65-0.68,0.65c-0.61,0-0.67-0.46-0.67-0.65V1.73h-2.52
		c-0.17,0-0.58-0.06-0.58-0.61c0-0.54,0.43-0.6,0.58-0.6h6.36c0.1,0,0.2,0.01,0.28,0.06c0.13,0.07,0.3,0.24,0.3,0.55
		c0,0.54-0.43,0.6-0.58,0.6h-2.49V9.99z"/>
	<path class="st0" d="M29.62,1.75v3.07h4.59c0.17,0,0.58,0.04,0.58,0.6c0,0.53-0.41,0.58-0.58,0.58h-4.59v3.34h5.08
		c0.17,0,0.58,0.04,0.58,0.6c0,0.55-0.41,0.61-0.58,0.61h-5.76c-0.57,0-0.65-0.34-0.67-0.67v-8.7c0.03-0.41,0.17-0.67,0.67-0.67
		h5.52c0.18,0,0.61,0.06,0.61,0.63c0,0.58-0.44,0.61-0.61,0.61H29.62z"/>
	<path class="st0" d="M41.62,4.8c1.08,0.31,2.76,0.83,2.76,2.94c0,2.25-2.03,2.96-3.7,2.96c-0.95,0-2.03-0.24-2.73-0.8
		c-0.9-0.71-1.14-1.78-1.14-2.05c0-0.55,0.57-0.67,0.81-0.67c0.43,0,0.51,0.21,0.57,0.41c0.13,0.47,0.24,1.01,0.85,1.45
		s1.35,0.47,1.76,0.47c0.33,0,1.08-0.01,1.61-0.41c0.37-0.28,0.61-0.74,0.61-1.24c0-0.57-0.31-0.94-0.53-1.11
		c-0.4-0.34-1.02-0.53-1.79-0.75l-1.07-0.3c-0.38-0.11-0.83-0.26-1.14-0.4c-0.29-0.13-1.25-0.61-1.25-2.1
		c0-1.65,1.11-2.84,3.41-2.84c0.64,0,1.75,0.07,2.57,0.77c0.58,0.48,0.97,1.29,0.97,1.68c0,0.43-0.33,0.65-0.71,0.65
		c-0.16,0-0.31-0.03-0.46-0.24C43,3.16,42.85,2.85,42.8,2.74c-0.18-0.37-0.61-1.24-2.19-1.24c-0.54,0-1.02,0.11-1.37,0.36
		c-0.33,0.23-0.6,0.63-0.6,1.19c0,0.53,0.29,0.78,0.36,0.84c0.26,0.21,0.87,0.4,1.32,0.53L41.62,4.8z"/>
	<path class="st0" d="M53.93,7.78c0.16-0.37,0.29-0.64,0.7-0.64c0.21,0,0.73,0.13,0.73,0.54c0,0.4-0.43,1.08-0.51,1.21
		c-1.14,1.69-2.96,1.81-3.77,1.81c-2.2,0-3.14-0.88-3.61-1.44c-0.84-1.01-1.11-2.35-1.11-3.65c0-1.39,0.31-2.8,1.22-3.84
		c1.25-1.41,2.93-1.41,3.46-1.41c0.57,0,2.3,0,3.43,1.35c0.36,0.41,0.77,1.19,0.77,1.66c0,0.37-0.4,0.58-0.73,0.58
		c-0.36,0-0.46-0.21-0.64-0.58c-0.7-1.54-1.71-1.81-2.82-1.81c-0.51,0-1.31,0.04-2.06,0.7c-0.92,0.82-1.19,2.1-1.19,3.34
		c0,0.97,0.17,1.95,0.74,2.73c0.77,1.05,1.81,1.21,2.54,1.21C52.35,9.55,53.39,8.96,53.93,7.78z"/>
	<path class="st0" d="M64.77,6.49c0,0.84,0,1.55-0.3,2.38c-0.5,1.37-2.03,1.83-3.38,1.83c-1.64,0-2.65-0.6-3.13-1.19
		c-0.67-0.78-0.74-1.83-0.74-2.92V1.07c0-0.2,0.06-0.64,0.68-0.64c0.61,0,0.68,0.46,0.68,0.64v4.28c0,1.65,0,2.43,0.4,3.17
		c0.11,0.19,0.62,0.92,2.06,0.92c0.37,0,0.88-0.04,1.37-0.31c1.02-0.54,1.04-1.49,1.04-3V1.09c0.01-0.21,0.04-0.43,0.33-0.57
		c0.1-0.06,0.21-0.09,0.33-0.09c0.37,0,0.67,0.24,0.67,0.65V6.49z"/>
	<path class="st0" d="M69.07,1.75v3.07h4.59c0.17,0,0.58,0.04,0.58,0.6c0,0.53-0.41,0.58-0.58,0.58h-4.59v3.34h5.08
		c0.17,0,0.58,0.04,0.58,0.6c0,0.55-0.41,0.61-0.58,0.61h-5.76c-0.57,0-0.65-0.34-0.67-0.67v-8.7c0.03-0.41,0.17-0.67,0.67-0.67
		h5.52c0.18,0,0.61,0.06,0.61,0.63c0,0.58-0.44,0.61-0.61,0.61H69.07z"/>
	<path class="st0" d="M78.39,9.32h4.72c0.18,0,0.6,0.06,0.6,0.61c0,0.57-0.43,0.63-0.6,0.63h-5.42c-0.31,0-0.67-0.07-0.67-0.67V1.07
		c0-0.19,0.07-0.64,0.68-0.64s0.68,0.44,0.68,0.64V9.32z"/>
	<path class="st0" d="M92.75,9.79c0.01,0.09,0.04,0.17,0.04,0.26c0,0.37-0.33,0.6-0.68,0.6c-0.38,0-0.51-0.23-0.58-0.41l-1-2.72
		h-3.78l-0.97,2.72c-0.06,0.19-0.21,0.41-0.58,0.41c-0.48,0-0.71-0.34-0.71-0.61c0-0.07,0.03-0.16,0.06-0.24l3.29-8.92
		c0.11-0.31,0.26-0.44,0.81-0.44s0.68,0.19,0.78,0.44L92.75,9.79z M90.11,6.36l-1.48-4.05l-1.46,4.05H90.11z"/>
</g>
<path class="st1" d="M90.4,25.64c0.15-0.08,0.23-0.2,0.23-0.37c0-0.04-0.01-0.09-0.02-0.13c0-1.06,0.08-1.91,0.24-2.55
	c0-0.01,0-0.02,0.01-0.02c0.12-0.46,0.27-0.83,0.45-1.12c0.09-0.15,0.23-0.33,0.42-0.54c0.23-0.24,0.42-0.37,0.57-0.37
	c0.1,0,0.15,0.08,0.16,0.24c0,0.18-0.02,0.38-0.06,0.61l-0.24,1.28c0.07,0.06,0.16,0.11,0.27,0.15c0.11,0.04,0.22,0.07,0.31,0.07
	c0.27,0,0.52-0.14,0.73-0.42c0.07-0.38,0.11-0.72,0.11-1.03c0-0.97-0.33-1.46-1-1.46c-0.22,0-0.46,0.07-0.71,0.21
	c-0.35,0.17-0.68,0.51-0.99,1.01c-0.33,0.54-0.55,1.25-0.68,2.11l-0.01-0.32c0-0.91,0.15-1.6,0.46-2.05
	c0.08-0.11,0.11-0.24,0.11-0.37c0-0.22-0.09-0.4-0.28-0.54c-0.12-0.08-0.24-0.11-0.37-0.11c-0.23,0-0.41,0.09-0.54,0.28
	c-0.3,0.46-0.46,1.05-0.46,1.77v0.16c0,0.61,0.06,1.17,0.17,1.68c0.28,1.25,0.58,1.87,0.91,1.87C90.28,25.69,90.34,25.67,90.4,25.64
	 M82.51,23.33c0-0.28,0.04-0.6,0.11-0.97c0.13-0.68,0.38-1.24,0.74-1.68c0.25-0.26,0.48-0.4,0.69-0.4c0.05,0,0.11,0.01,0.16,0.03
	c0.25,0.09,0.46,0.29,0.62,0.6c0.17,0.31,0.29,0.62,0.36,0.93c-0.22,0.1-0.42,0.26-0.6,0.47c-0.29,0.34-0.49,0.59-0.6,0.77
	c-0.5,0.72-0.88,1.07-1.14,1.07C82.63,24.16,82.51,23.89,82.51,23.33 M87.72,25.9l0.02-0.02c0.6-0.91,1.09-1.91,1.45-2.99
	c0.01-0.03,0.02-0.06,0.02-0.09c0-0.11-0.06-0.18-0.17-0.22c-0.03-0.01-0.06-0.02-0.08-0.02c-0.1,0-0.18,0.06-0.23,0.17
	c-0.35,1.04-0.81,2-1.4,2.88h-0.01v0.01c-0.45,0.66-0.85,1.11-1.23,1.35c-0.15,0.09-0.26,0.14-0.34,0.14
	c-0.11,0-0.17-0.09-0.17-0.26c0-0.16,0.01-0.31,0.04-0.47c0.13-0.77,0.36-1.76,0.69-2.97c0.46-1.75,0.73-2.93,0.8-3.55v-0.01
	c0-0.03-0.05-0.04-0.15-0.04c-0.14,0-0.31,0.02-0.51,0.07c-0.45,0.12-0.7,0.27-0.75,0.46c-0.04,0.23-0.11,0.51-0.19,0.83
	c-0.33-0.79-0.68-1.23-1.05-1.34c-0.37-0.11-0.63-0.16-0.8-0.16c-0.38,0-0.75,0.12-1.1,0.38c-0.52,0.36-0.87,0.94-1.05,1.73
	c-0.04,0.22-0.07,0.46-0.07,0.74l0.01,0.36c0.02,0.42,0.14,0.8,0.34,1.15c0.13,0.22,0.29,0.39,0.46,0.49
	c0.17,0.1,0.33,0.15,0.48,0.15c0.09,0,0.19-0.01,0.29-0.04c0.46-0.17,0.93-0.61,1.42-1.33c0.28-0.4,0.55-0.71,0.81-0.93
	c-0.28,1.34-0.42,2.43-0.42,3.28c0,0.93,0.13,1.5,0.38,1.72c0.18,0.15,0.34,0.23,0.5,0.23C86.28,27.61,86.95,27.04,87.72,25.9
	 M77.01,21.17c0-2.67,0.75-4.81,2.24-6.4c0.41-0.43,0.85-0.65,1.32-0.65c0.09,0,0.17,0.01,0.25,0.03c0.28,0.05,0.44,0.27,0.48,0.65
	v0.06c0,0.26-0.07,0.55-0.2,0.88c-0.34,0.81-0.87,1.68-1.6,2.61v0.01c-0.94,1.21-1.78,2.18-2.5,2.91V21.17z M80.71,25.15l0.02-0.02
	c0.36-0.82,0.6-1.58,0.72-2.27V22.8c0-0.12-0.07-0.2-0.2-0.24h-0.04c-0.05,0-0.1,0.02-0.15,0.05c-0.05,0.03-0.08,0.08-0.09,0.15
	c-0.12,0.65-0.35,1.37-0.69,2.16l-0.02,0.02c-0.28,0.64-0.59,1.17-0.94,1.6c-0.24,0.31-0.47,0.47-0.68,0.47
	c-0.18,0-0.38-0.17-0.58-0.51c-0.25-0.43-0.47-1.05-0.67-1.85c-0.2-0.8-0.32-1.7-0.37-2.69c1.06-1.1,2.01-2.2,2.87-3.31
	c0,0,0-0.01,0.01-0.01c0.74-0.96,1.29-1.87,1.65-2.73c0.16-0.4,0.24-0.76,0.24-1.07c0-0.35-0.1-0.63-0.29-0.83
	c-0.24-0.25-0.6-0.37-1.07-0.37c-0.29,0-0.59,0.05-0.9,0.15c-0.47,0.15-0.88,0.36-1.22,0.63c-1.76,1.43-2.64,3.56-2.64,6.38
	c0,1.41,0.21,2.72,0.62,3.93c0.35,1.06,0.79,1.84,1.31,2.34c0.32,0.31,0.64,0.46,0.95,0.46C79.3,27.51,80.02,26.72,80.71,25.15
	 M73.85,19.59c0.15-0.15,0.22-0.33,0.22-0.53c0-0.21-0.07-0.39-0.22-0.54c-0.15-0.15-0.33-0.22-0.54-0.22
	c-0.21,0-0.39,0.07-0.54,0.22c-0.15,0.15-0.22,0.33-0.22,0.54c0,0.21,0.07,0.38,0.22,0.53s0.33,0.22,0.54,0.22
	C73.52,19.81,73.7,19.73,73.85,19.59 M74.42,25.9c0.61-0.92,1.1-1.92,1.47-3c0.01-0.03,0.02-0.06,0.02-0.09
	c0-0.11-0.06-0.18-0.17-0.22c-0.03-0.01-0.05-0.02-0.08-0.02c-0.1,0-0.18,0.06-0.23,0.17c-0.35,1.04-0.81,2-1.4,2.88h-0.01v0.01
	c-0.44,0.66-0.85,1.11-1.23,1.35c-0.15,0.09-0.27,0.14-0.34,0.14c-0.11,0-0.17-0.09-0.17-0.26c0-0.16,0.01-0.31,0.04-0.47
	c0.13-0.77,0.36-1.76,0.69-2.97c0.31-1.14,0.55-2.15,0.72-3.04l0.01-0.1c0-0.22-0.14-0.33-0.42-0.33c-0.22,0-0.45,0.06-0.67,0.18
	c-0.15,0.08-0.23,0.15-0.25,0.22c-0.03,0.14-0.06,0.3-0.11,0.46c-0.51,2.11-0.76,3.73-0.76,4.85c0,0.92,0.13,1.49,0.38,1.71
	c0.18,0.15,0.35,0.23,0.5,0.23C72.97,27.61,73.64,27.04,74.42,25.9 M70.39,25.9c0.61-0.92,1.1-1.92,1.46-3l0.01-0.07
	c0-0.12-0.05-0.2-0.16-0.24c-0.03-0.01-0.06-0.02-0.09-0.02c-0.11,0-0.18,0.06-0.22,0.17c-0.35,1.04-0.82,2-1.41,2.88
	c0,0.01,0,0.01-0.01,0.01c-0.44,0.66-0.85,1.11-1.23,1.35c-0.15,0.09-0.26,0.14-0.34,0.14c-0.11,0-0.17-0.1-0.17-0.29
	c0-0.49,0.24-1.64,0.73-3.43c0.32-1.14,0.56-2.15,0.72-3.03l0.01-0.09c0-0.22-0.14-0.33-0.42-0.33c-0.57,0-1.02,0.3-1.34,0.91
	c-0.26,0.5-0.49,1.05-0.68,1.64c-0.35,1.04-0.62,1.55-0.8,1.55c-0.07,0-0.13-0.07-0.19-0.19c-0.15-0.35-0.23-0.75-0.23-1.21
	c0-0.69,0.14-1.29,0.43-1.8c0.05-0.09,0.07-0.18,0.07-0.27c0-0.22-0.1-0.39-0.29-0.51C66.16,20.03,66.07,20,65.98,20
	c-0.22,0-0.39,0.1-0.51,0.29c-0.35,0.62-0.53,1.29-0.53,2.01c0,0.71,0.23,1.33,0.68,1.86c0.23,0.27,0.49,0.4,0.77,0.4
	c0.34,0,0.63-0.25,0.87-0.76c0.15-0.33,0.3-0.71,0.45-1.13c0.1-0.3,0.21-0.6,0.33-0.9c-0.37,1.63-0.55,2.94-0.55,3.92
	c0,0.9,0.13,1.46,0.39,1.68c0.17,0.15,0.34,0.23,0.49,0.23C68.95,27.61,69.62,27.04,70.39,25.9 M57.51,33.35
	c-0.33-0.53-0.49-1.1-0.49-1.72c0-0.68,0.2-1.35,0.59-1.99c0.02-0.01,0.03-0.03,0.04-0.04c0.41-0.65,0.94-1.26,1.59-1.84
	c0.65-0.57,1.34-1.12,2.06-1.63c-0.37,3.9-0.85,6.32-1.43,7.28c-0.35,0.57-0.72,0.86-1.13,0.86C58.31,34.29,57.9,33.98,57.51,33.35
	 M59.56,24.87c-0.15-0.18-0.24-0.44-0.25-0.76c-0.02-0.32-0.02-0.55-0.02-0.67c0-0.41,0.04-0.84,0.12-1.29
	c0.11-0.57,0.27-1,0.48-1.27c0.21-0.27,0.43-0.41,0.65-0.41c0.33,0,0.68,0.19,1.04,0.58c-0.12,0.31-0.24,0.65-0.38,1.02l-0.01,0.02
	c-0.04,0.14-0.16,0.47-0.36,0.99c-0.21,0.56-0.42,1.03-0.64,1.42c-0.18,0.31-0.34,0.46-0.48,0.46
	C59.66,24.96,59.61,24.93,59.56,24.87 M60.38,33.99c0.43-0.46,0.78-1.08,1.04-1.85c0.55-1.7,0.98-4.04,1.3-7.04
	c1.16-0.84,1.94-1.56,2.35-2.18c0.02-0.04,0.03-0.08,0.03-0.12c0-0.09-0.04-0.16-0.11-0.21c-0.04-0.03-0.08-0.04-0.12-0.04
	c-0.09,0-0.16,0.04-0.21,0.11c-0.4,0.57-1.02,1.16-1.87,1.78c0.1-0.99,0.18-1.87,0.25-2.64c0.04-0.54,0.08-0.99,0.12-1.35
	c-0.02-0.2-0.09-0.32-0.22-0.37c-0.13-0.05-0.24-0.07-0.35-0.07c-0.3,0-0.51,0.09-0.62,0.27c-0.07,0.08-0.13,0.19-0.2,0.32
	c-0.22-0.21-0.45-0.39-0.71-0.53c-0.4-0.21-0.76-0.31-1.08-0.31c-0.16,0-0.3,0.02-0.44,0.07c-0.42,0.15-0.75,0.45-0.99,0.88
	c-0.29,0.53-0.44,1.12-0.44,1.79c0,0.92,0.18,1.68,0.54,2.29c0.35,0.5,0.69,0.75,1.02,0.75l0.1-0.01c0.36-0.05,0.65-0.27,0.87-0.64
	c0.24-0.4,0.46-0.89,0.68-1.48c0.12-0.34,0.24-0.66,0.34-0.96l-0.29,3.03c-0.79,0.55-1.56,1.15-2.31,1.79s-1.36,1.33-1.84,2.07
	L57.2,29.4c-0.44,0.73-0.67,1.49-0.67,2.29c0,0.69,0.18,1.34,0.54,1.94c0.5,0.77,1.07,1.15,1.72,1.15
	C59.35,34.79,59.88,34.53,60.38,33.99 M53.03,22.1c-1-0.16-1.83-0.24-2.49-0.24l0.01-0.02l0.06-0.14c0.44-1.04,0.9-2.07,1.38-3.11
	c0.48-1.04,0.98-1.99,1.51-2.87c0.53-0.88,1.1-1.59,1.71-2.15c-0.58,1.06-1.01,2.31-1.3,3.73c-0.29,1.42-0.43,2.81-0.43,4.15
	l0.01,0.7L53.03,22.1z M58.26,29.12c0.05-0.04,0.07-0.1,0.07-0.17c0-0.16-0.08-0.24-0.24-0.25c-1.43-0.06-2.41-1.06-2.95-3
	c-0.24-0.89-0.39-1.86-0.42-2.93l0.31,0.01c0.72,0,1.22-0.15,1.52-0.45c0.04-0.05,0.07-0.11,0.07-0.18c0-0.07-0.03-0.12-0.08-0.17
	c-0.05-0.05-0.11-0.07-0.18-0.07s-0.12,0.02-0.17,0.07c-0.23,0.21-0.61,0.32-1.13,0.32c-0.11,0-0.23-0.01-0.35-0.02v-0.07
	c0-1.79,0.2-3.52,0.6-5.17c0.4-1.65,0.94-2.87,1.6-3.66c0.11-0.13,0.16-0.27,0.16-0.43c0-0.19-0.07-0.35-0.22-0.49
	c-0.14-0.11-0.29-0.16-0.44-0.16c-0.11,0-0.23,0.03-0.35,0.1c-1.1,0.5-2.19,1.67-3.26,3.5c-0.74,1.3-1.63,3.17-2.66,5.62l-0.15,0.36
	c-0.53,0.02-1.04,0.12-1.56,0.3s-0.91,0.47-1.19,0.88c-0.04,0.07-0.06,0.14-0.06,0.22c0,0.14,0.06,0.26,0.19,0.34
	c0.08,0.04,0.15,0.07,0.23,0.07c0.14,0,0.26-0.06,0.34-0.19c0.25-0.39,0.52-0.67,0.81-0.83c0.29-0.16,0.63-0.26,1.03-0.29
	c-0.46,1.1-0.92,2.1-1.38,3.01c-0.46,0.91-0.93,1.65-1.4,2.21c-0.48,0.53-0.99,0.8-1.52,0.8c-0.58,0-1.12-0.29-1.62-0.86
	c-0.39-0.44-0.68-0.98-0.88-1.62c-0.12-0.45-0.18-0.88-0.18-1.29c0-0.96,0.34-1.81,1.02-2.54c0.56-0.53,1.09-0.8,1.59-0.8
	c0.14,0,0.28,0.02,0.42,0.07c0.49,0.23,0.73,0.79,0.73,1.67c0,0.07,0.03,0.13,0.07,0.18c0.05,0.05,0.11,0.07,0.17,0.07
	c0.07,0,0.13-0.02,0.18-0.07s0.07-0.1,0.07-0.18c0-0.85-0.2-1.45-0.59-1.82c-0.29-0.27-0.63-0.41-1.03-0.41
	c-0.66,0-1.31,0.32-1.94,0.95c-0.78,0.78-1.16,1.75-1.16,2.91c0,0.46,0.07,0.93,0.2,1.4c0.21,0.69,0.54,1.3,0.98,1.81
	c0.61,0.69,1.28,1.03,2.01,1.03c0.66,0,1.29-0.33,1.87-0.98c0.51-0.6,1.02-1.39,1.5-2.36c0.49-0.97,0.97-2.04,1.46-3.19
	c0.79,0,1.66,0.08,2.63,0.23l0.54,0.07c0.08,1.18,0.29,2.25,0.63,3.22c0.75,2.14,2.06,3.24,3.95,3.31
	C58.15,29.18,58.21,29.16,58.26,29.12 M29.51,23.33c0-0.28,0.04-0.6,0.11-0.97c0.14-0.68,0.38-1.24,0.74-1.68
	c0.25-0.26,0.48-0.4,0.69-0.4c0.06,0,0.11,0.01,0.16,0.03c0.25,0.09,0.46,0.29,0.62,0.6c0.16,0.31,0.29,0.62,0.36,0.93
	c-0.22,0.1-0.42,0.26-0.6,0.47c-0.29,0.34-0.49,0.59-0.6,0.77c-0.5,0.72-0.88,1.07-1.14,1.07C29.62,24.16,29.51,23.89,29.51,23.33
	 M34.72,25.9l0.02-0.02c0.6-0.91,1.08-1.91,1.45-2.99c0.01-0.03,0.02-0.06,0.02-0.09c0-0.11-0.06-0.18-0.17-0.22
	c-0.03-0.01-0.05-0.02-0.08-0.02c-0.1,0-0.18,0.06-0.23,0.17c-0.35,1.04-0.81,2-1.4,2.88h-0.01v0.01c-0.44,0.66-0.85,1.11-1.23,1.35
	c-0.15,0.09-0.27,0.14-0.34,0.14c-0.11,0-0.17-0.09-0.17-0.26c0-0.16,0.01-0.31,0.04-0.47c0.13-0.77,0.36-1.76,0.69-2.97
	c0.46-1.75,0.73-2.93,0.8-3.55v-0.01c0-0.03-0.05-0.04-0.15-0.04c-0.14,0-0.31,0.02-0.51,0.07c-0.45,0.12-0.7,0.27-0.75,0.46
	c-0.04,0.23-0.11,0.51-0.19,0.83c-0.33-0.79-0.68-1.23-1.05-1.34c-0.37-0.11-0.63-0.16-0.8-0.16c-0.38,0-0.75,0.12-1.1,0.38
	c-0.51,0.36-0.86,0.94-1.05,1.73c-0.04,0.22-0.07,0.46-0.07,0.74l0.01,0.36c0.02,0.42,0.14,0.8,0.34,1.15
	c0.14,0.22,0.29,0.39,0.46,0.49c0.17,0.1,0.33,0.15,0.48,0.15c0.09,0,0.19-0.01,0.28-0.04c0.46-0.17,0.93-0.61,1.42-1.33
	c0.28-0.4,0.55-0.71,0.81-0.93c-0.28,1.34-0.42,2.43-0.42,3.28c0,0.93,0.13,1.5,0.38,1.72c0.18,0.15,0.35,0.23,0.5,0.23
	C33.27,27.61,33.94,27.04,34.72,25.9 M20.95,33.35c-0.32-0.53-0.49-1.1-0.49-1.72c0-0.68,0.19-1.35,0.59-1.99
	c0.02-0.01,0.03-0.03,0.04-0.04c0.41-0.65,0.94-1.26,1.59-1.84c0.65-0.57,1.34-1.12,2.06-1.63c-0.38,3.9-0.85,6.32-1.43,7.28
	c-0.35,0.57-0.72,0.86-1.13,0.86C21.75,34.29,21.34,33.98,20.95,33.35 M22.99,24.87c-0.15-0.18-0.24-0.44-0.25-0.76
	c-0.02-0.32-0.02-0.55-0.02-0.67c0-0.41,0.04-0.84,0.12-1.29c0.11-0.57,0.27-1,0.48-1.27c0.21-0.27,0.43-0.41,0.65-0.41
	c0.33,0,0.68,0.19,1.04,0.58c-0.12,0.31-0.24,0.65-0.37,1.02l-0.01,0.02c-0.04,0.14-0.16,0.47-0.36,0.99
	c-0.21,0.56-0.42,1.03-0.64,1.42c-0.18,0.31-0.34,0.46-0.48,0.46C23.09,24.96,23.04,24.93,22.99,24.87 M23.82,33.99
	c0.43-0.46,0.78-1.08,1.04-1.85c0.55-1.7,0.98-4.04,1.3-7.04c1.15-0.84,1.94-1.56,2.35-2.18c0.02-0.04,0.03-0.08,0.03-0.12
	c0-0.09-0.04-0.16-0.11-0.21c-0.04-0.03-0.08-0.04-0.12-0.04c-0.09,0-0.16,0.04-0.21,0.11c-0.4,0.57-1.02,1.16-1.87,1.78
	c0.1-0.99,0.18-1.87,0.24-2.64c0.04-0.54,0.08-0.99,0.12-1.35c-0.02-0.2-0.09-0.32-0.22-0.37c-0.13-0.05-0.24-0.07-0.35-0.07
	c-0.3,0-0.5,0.09-0.62,0.27c-0.07,0.08-0.13,0.19-0.2,0.32c-0.22-0.21-0.45-0.39-0.71-0.53c-0.4-0.21-0.76-0.31-1.08-0.31
	c-0.16,0-0.3,0.02-0.44,0.07c-0.42,0.15-0.75,0.45-0.99,0.88c-0.29,0.53-0.44,1.12-0.44,1.79c0,0.92,0.18,1.68,0.55,2.29
	c0.35,0.5,0.69,0.75,1.02,0.75l0.1-0.01c0.36-0.05,0.65-0.27,0.87-0.64c0.24-0.4,0.46-0.89,0.68-1.48c0.12-0.34,0.24-0.66,0.34-0.96
	l-0.29,3.03c-0.79,0.55-1.56,1.15-2.31,1.79c-0.75,0.64-1.36,1.33-1.84,2.07l-0.02,0.06c-0.44,0.73-0.67,1.49-0.67,2.29
	c0,0.69,0.18,1.34,0.54,1.94c0.5,0.77,1.07,1.15,1.72,1.15C22.79,34.79,23.32,34.53,23.82,33.99 M17.12,21.17
	c0-2.67,0.75-4.81,2.24-6.4c0.41-0.43,0.85-0.65,1.32-0.65c0.09,0,0.17,0.01,0.25,0.03c0.28,0.05,0.44,0.27,0.48,0.65v0.06
	c0,0.26-0.07,0.55-0.2,0.88c-0.34,0.81-0.87,1.68-1.6,2.61v0.01c-0.94,1.21-1.78,2.18-2.5,2.91V21.17z M20.83,25.15l0.02-0.02
	c0.36-0.82,0.6-1.58,0.72-2.27V22.8c0-0.12-0.07-0.2-0.2-0.24h-0.04c-0.05,0-0.1,0.02-0.15,0.05c-0.05,0.03-0.08,0.08-0.09,0.15
	c-0.12,0.65-0.35,1.37-0.69,2.16l-0.02,0.02c-0.28,0.64-0.59,1.17-0.94,1.6c-0.24,0.31-0.47,0.47-0.68,0.47
	c-0.18,0-0.38-0.17-0.58-0.51c-0.25-0.43-0.47-1.05-0.67-1.85c-0.19-0.8-0.32-1.7-0.37-2.69c1.06-1.1,2.01-2.2,2.87-3.31
	c0,0,0-0.01,0.01-0.01c0.74-0.96,1.29-1.87,1.65-2.73c0.16-0.4,0.24-0.76,0.24-1.07c0-0.35-0.09-0.63-0.28-0.83
	c-0.24-0.25-0.6-0.37-1.07-0.37c-0.29,0-0.59,0.05-0.9,0.15c-0.47,0.15-0.88,0.36-1.22,0.63c-1.76,1.43-2.64,3.56-2.64,6.38
	c0,1.41,0.21,2.72,0.62,3.93c0.35,1.06,0.79,1.84,1.31,2.34c0.32,0.31,0.64,0.46,0.95,0.46C19.42,27.51,20.14,26.72,20.83,25.15
	 M7.62,21.03c-0.95-0.58-1.72-1.34-2.29-2.28c-0.55-0.9-0.83-1.8-0.83-2.71c0-0.62,0.13-1.16,0.41-1.63
	c0.33-0.57,0.8-1.01,1.41-1.29c0.49-0.23,1.05-0.35,1.65-0.35c1.32,0,2.34,0.61,3.06,1.84c0.67,1.18,1,2.66,1,4.44
	c0,0.79-0.07,1.6-0.22,2.41c-0.54,0.24-1.08,0.37-1.63,0.37C9.36,21.82,8.51,21.56,7.62,21.03 M6.94,28.95
	c1.18-0.38,2.18-1.06,2.99-2.05c1.1-1.34,1.85-2.99,2.27-4.94c0.84-0.31,1.58-0.84,2.23-1.59c0.07-0.08,0.11-0.17,0.11-0.27
	c0-0.12-0.04-0.22-0.13-0.29c-0.09-0.08-0.18-0.11-0.28-0.11c-0.11,0-0.21,0.05-0.3,0.14c-0.46,0.54-0.95,0.98-1.47,1.32
	c0.11-0.72,0.17-1.43,0.17-2.14c0-1.83-0.36-3.38-1.07-4.65c-0.81-1.39-1.98-2.09-3.5-2.09c-0.68,0-1.29,0.13-1.85,0.4
	c-0.7,0.34-1.24,0.84-1.63,1.51c-0.32,0.57-0.48,1.2-0.48,1.89c0,0.97,0.31,1.95,0.92,2.95c0.61,1,1.43,1.81,2.45,2.43
	c0.96,0.57,1.95,0.85,2.97,0.85c0.47,0,0.91-0.05,1.32-0.15c-0.41,1.75-1.11,3.23-2.08,4.42c-0.76,0.93-1.68,1.58-2.77,1.93
	c-0.4,0.11-0.76,0.17-1.1,0.17c-0.3,0-0.58-0.05-0.84-0.15c-0.95-0.37-1.62-1.26-2.02-2.68c-0.28-1.02-0.42-2.2-0.42-3.55
	c0-0.88,0.06-1.75,0.19-2.61c0.21-1.41,0.53-2.52,0.97-3.34c0.05-0.1,0.07-0.21,0.07-0.31c0-0.26-0.11-0.45-0.33-0.57
	c-0.11-0.06-0.22-0.08-0.33-0.08c-0.24,0-0.43,0.11-0.57,0.33c-0.6,1.14-0.98,2.29-1.13,3.46c-0.15,1.17-0.22,2.07-0.22,2.72
	c0,2.25,0.45,4.05,1.34,5.4c0.82,1.25,1.88,1.87,3.19,1.87C6.02,29.15,6.47,29.08,6.94,28.95"/>
<path class="st2" d="M90.4,25.64c0.15-0.08,0.23-0.2,0.23-0.37c0-0.04-0.01-0.09-0.02-0.13c0-1.06,0.08-1.91,0.24-2.55
	c0-0.01,0-0.02,0.01-0.02c0.12-0.46,0.27-0.83,0.45-1.12c0.09-0.15,0.23-0.33,0.42-0.54c0.23-0.24,0.42-0.37,0.57-0.37
	c0.1,0,0.15,0.08,0.16,0.24c0,0.18-0.02,0.38-0.06,0.61l-0.24,1.28c0.07,0.06,0.16,0.11,0.27,0.15c0.11,0.04,0.22,0.07,0.31,0.07
	c0.27,0,0.52-0.14,0.73-0.42c0.07-0.38,0.11-0.72,0.11-1.03c0-0.97-0.33-1.46-1-1.46c-0.22,0-0.46,0.07-0.71,0.21
	c-0.35,0.17-0.68,0.51-0.99,1.01c-0.33,0.54-0.55,1.25-0.68,2.11l-0.01-0.32c0-0.91,0.15-1.6,0.46-2.05
	c0.08-0.11,0.11-0.24,0.11-0.37c0-0.22-0.09-0.4-0.28-0.54c-0.12-0.08-0.24-0.11-0.37-0.11c-0.23,0-0.41,0.09-0.54,0.28
	c-0.3,0.46-0.46,1.05-0.46,1.77v0.16c0,0.61,0.06,1.17,0.17,1.68c0.28,1.25,0.58,1.87,0.91,1.87C90.28,25.69,90.34,25.67,90.4,25.64
	 M82.51,23.33c0-0.28,0.04-0.6,0.11-0.97c0.13-0.68,0.38-1.24,0.74-1.68c0.25-0.26,0.48-0.4,0.69-0.4c0.05,0,0.11,0.01,0.16,0.03
	c0.25,0.09,0.46,0.29,0.62,0.6c0.17,0.31,0.29,0.62,0.36,0.93c-0.22,0.1-0.42,0.26-0.6,0.47c-0.29,0.34-0.49,0.59-0.6,0.77
	c-0.5,0.72-0.88,1.07-1.14,1.07C82.63,24.16,82.51,23.89,82.51,23.33 M87.72,25.9l0.02-0.02c0.6-0.91,1.09-1.91,1.45-2.99
	c0.01-0.03,0.02-0.06,0.02-0.09c0-0.11-0.06-0.18-0.17-0.22c-0.03-0.01-0.06-0.02-0.08-0.02c-0.1,0-0.18,0.06-0.23,0.17
	c-0.35,1.04-0.81,2-1.4,2.88h-0.01v0.01c-0.45,0.66-0.85,1.11-1.23,1.35c-0.15,0.09-0.26,0.14-0.34,0.14
	c-0.11,0-0.17-0.09-0.17-0.26c0-0.16,0.01-0.31,0.04-0.47c0.13-0.77,0.36-1.76,0.69-2.97c0.46-1.75,0.73-2.93,0.8-3.55v-0.01
	c0-0.03-0.05-0.04-0.15-0.04c-0.14,0-0.31,0.02-0.51,0.07c-0.45,0.12-0.7,0.27-0.75,0.46c-0.04,0.23-0.11,0.51-0.19,0.83
	c-0.33-0.79-0.68-1.23-1.05-1.34c-0.37-0.11-0.63-0.16-0.8-0.16c-0.38,0-0.75,0.12-1.1,0.38c-0.52,0.36-0.87,0.94-1.05,1.73
	c-0.04,0.22-0.07,0.46-0.07,0.74l0.01,0.36c0.02,0.42,0.14,0.8,0.34,1.15c0.13,0.22,0.29,0.39,0.46,0.49
	c0.17,0.1,0.33,0.15,0.48,0.15c0.09,0,0.19-0.01,0.29-0.04c0.46-0.17,0.93-0.61,1.42-1.33c0.28-0.4,0.55-0.71,0.81-0.93
	c-0.28,1.34-0.42,2.43-0.42,3.28c0,0.93,0.13,1.5,0.38,1.72c0.18,0.15,0.34,0.23,0.5,0.23C86.28,27.61,86.95,27.04,87.72,25.9
	 M77.01,21.17c0-2.67,0.75-4.81,2.24-6.4c0.41-0.43,0.85-0.65,1.32-0.65c0.09,0,0.17,0.01,0.25,0.03c0.28,0.05,0.44,0.27,0.48,0.65
	v0.06c0,0.26-0.07,0.55-0.2,0.88c-0.34,0.81-0.87,1.68-1.6,2.61v0.01c-0.94,1.21-1.78,2.18-2.5,2.91V21.17z M80.71,25.15l0.02-0.02
	c0.36-0.82,0.6-1.58,0.72-2.27V22.8c0-0.12-0.07-0.2-0.2-0.24h-0.04c-0.05,0-0.1,0.02-0.15,0.05c-0.05,0.03-0.08,0.08-0.09,0.15
	c-0.12,0.65-0.35,1.37-0.69,2.16l-0.02,0.02c-0.28,0.64-0.59,1.17-0.94,1.6c-0.24,0.31-0.47,0.47-0.68,0.47
	c-0.18,0-0.38-0.17-0.58-0.51c-0.25-0.43-0.47-1.05-0.67-1.85c-0.2-0.8-0.32-1.7-0.37-2.69c1.06-1.1,2.01-2.2,2.87-3.31
	c0,0,0-0.01,0.01-0.01c0.74-0.96,1.29-1.87,1.65-2.73c0.16-0.4,0.24-0.76,0.24-1.07c0-0.35-0.1-0.63-0.29-0.83
	c-0.24-0.25-0.6-0.37-1.07-0.37c-0.29,0-0.59,0.05-0.9,0.15c-0.47,0.15-0.88,0.36-1.22,0.63c-1.76,1.43-2.64,3.56-2.64,6.38
	c0,1.41,0.21,2.72,0.62,3.93c0.35,1.06,0.79,1.84,1.31,2.34c0.32,0.31,0.64,0.46,0.95,0.46C79.3,27.51,80.02,26.72,80.71,25.15
	 M73.85,19.59c0.15-0.15,0.22-0.33,0.22-0.53c0-0.21-0.07-0.39-0.22-0.54c-0.15-0.15-0.33-0.22-0.54-0.22
	c-0.21,0-0.39,0.07-0.54,0.22c-0.15,0.15-0.22,0.33-0.22,0.54c0,0.21,0.07,0.38,0.22,0.53s0.33,0.22,0.54,0.22
	C73.52,19.81,73.7,19.73,73.85,19.59 M74.42,25.9c0.61-0.92,1.1-1.92,1.47-3c0.01-0.03,0.02-0.06,0.02-0.09
	c0-0.11-0.06-0.18-0.17-0.22c-0.03-0.01-0.05-0.02-0.08-0.02c-0.1,0-0.18,0.06-0.23,0.17c-0.35,1.04-0.81,2-1.4,2.88h-0.01v0.01
	c-0.44,0.66-0.85,1.11-1.23,1.35c-0.15,0.09-0.27,0.14-0.34,0.14c-0.11,0-0.17-0.09-0.17-0.26c0-0.16,0.01-0.31,0.04-0.47
	c0.13-0.77,0.36-1.76,0.69-2.97c0.31-1.14,0.55-2.15,0.72-3.04l0.01-0.1c0-0.22-0.14-0.33-0.42-0.33c-0.22,0-0.45,0.06-0.67,0.18
	c-0.15,0.08-0.23,0.15-0.25,0.22c-0.03,0.14-0.06,0.3-0.11,0.46c-0.51,2.11-0.76,3.73-0.76,4.85c0,0.92,0.13,1.49,0.38,1.71
	c0.18,0.15,0.35,0.23,0.5,0.23C72.97,27.61,73.64,27.04,74.42,25.9 M70.39,25.9c0.61-0.92,1.1-1.92,1.46-3l0.01-0.07
	c0-0.12-0.05-0.2-0.16-0.24c-0.03-0.01-0.06-0.02-0.09-0.02c-0.11,0-0.18,0.06-0.22,0.17c-0.35,1.04-0.82,2-1.41,2.88
	c0,0.01,0,0.01-0.01,0.01c-0.44,0.66-0.85,1.11-1.23,1.35c-0.15,0.09-0.26,0.14-0.34,0.14c-0.11,0-0.17-0.1-0.17-0.29
	c0-0.49,0.24-1.64,0.73-3.43c0.32-1.14,0.56-2.15,0.72-3.03l0.01-0.09c0-0.22-0.14-0.33-0.42-0.33c-0.57,0-1.02,0.3-1.34,0.91
	c-0.26,0.5-0.49,1.05-0.68,1.64c-0.35,1.04-0.62,1.55-0.8,1.55c-0.07,0-0.13-0.07-0.19-0.19c-0.15-0.35-0.23-0.75-0.23-1.21
	c0-0.69,0.14-1.29,0.43-1.8c0.05-0.09,0.07-0.18,0.07-0.27c0-0.22-0.1-0.39-0.29-0.51C66.16,20.03,66.07,20,65.98,20
	c-0.22,0-0.39,0.1-0.51,0.29c-0.35,0.62-0.53,1.29-0.53,2.01c0,0.71,0.23,1.33,0.68,1.86c0.23,0.27,0.49,0.4,0.77,0.4
	c0.34,0,0.63-0.25,0.87-0.76c0.15-0.33,0.3-0.71,0.45-1.13c0.1-0.3,0.21-0.6,0.33-0.9c-0.37,1.63-0.55,2.94-0.55,3.92
	c0,0.9,0.13,1.46,0.39,1.68c0.17,0.15,0.34,0.23,0.49,0.23C68.95,27.61,69.62,27.04,70.39,25.9 M57.51,33.35
	c-0.33-0.53-0.49-1.1-0.49-1.72c0-0.68,0.2-1.35,0.59-1.99c0.02-0.01,0.03-0.03,0.04-0.04c0.41-0.65,0.94-1.26,1.59-1.84
	c0.65-0.57,1.34-1.12,2.06-1.63c-0.37,3.9-0.85,6.32-1.43,7.28c-0.35,0.57-0.72,0.86-1.13,0.86C58.31,34.29,57.9,33.98,57.51,33.35
	 M59.56,24.87c-0.15-0.18-0.24-0.44-0.25-0.76c-0.02-0.32-0.02-0.55-0.02-0.67c0-0.41,0.04-0.84,0.12-1.29
	c0.11-0.57,0.27-1,0.48-1.27c0.21-0.27,0.43-0.41,0.65-0.41c0.33,0,0.68,0.19,1.04,0.58c-0.12,0.31-0.24,0.65-0.38,1.02l-0.01,0.02
	c-0.04,0.14-0.16,0.47-0.36,0.99c-0.21,0.56-0.42,1.03-0.64,1.42c-0.18,0.31-0.34,0.46-0.48,0.46
	C59.66,24.96,59.61,24.93,59.56,24.87 M60.38,33.99c0.43-0.46,0.78-1.08,1.04-1.85c0.55-1.7,0.98-4.04,1.3-7.04
	c1.16-0.84,1.94-1.56,2.35-2.18c0.02-0.04,0.03-0.08,0.03-0.12c0-0.09-0.04-0.16-0.11-0.21c-0.04-0.03-0.08-0.04-0.12-0.04
	c-0.09,0-0.16,0.04-0.21,0.11c-0.4,0.57-1.02,1.16-1.87,1.78c0.1-0.99,0.18-1.87,0.25-2.64c0.04-0.54,0.08-0.99,0.12-1.35
	c-0.02-0.2-0.09-0.32-0.22-0.37c-0.13-0.05-0.24-0.07-0.35-0.07c-0.3,0-0.51,0.09-0.62,0.27c-0.07,0.08-0.13,0.19-0.2,0.32
	c-0.22-0.21-0.45-0.39-0.71-0.53c-0.4-0.21-0.76-0.31-1.08-0.31c-0.16,0-0.3,0.02-0.44,0.07c-0.42,0.15-0.75,0.45-0.99,0.88
	c-0.29,0.53-0.44,1.12-0.44,1.79c0,0.92,0.18,1.68,0.54,2.29c0.35,0.5,0.69,0.75,1.02,0.75l0.1-0.01c0.36-0.05,0.65-0.27,0.87-0.64
	c0.24-0.4,0.46-0.89,0.68-1.48c0.12-0.34,0.24-0.66,0.34-0.96l-0.29,3.03c-0.79,0.55-1.56,1.15-2.31,1.79s-1.36,1.33-1.84,2.07
	L57.2,29.4c-0.44,0.73-0.67,1.49-0.67,2.29c0,0.69,0.18,1.34,0.54,1.94c0.5,0.77,1.07,1.15,1.72,1.15
	C59.35,34.79,59.88,34.53,60.38,33.99 M53.03,22.1c-1-0.16-1.83-0.24-2.49-0.24l0.01-0.02l0.06-0.14c0.44-1.04,0.9-2.07,1.38-3.11
	c0.48-1.04,0.98-1.99,1.51-2.87c0.53-0.88,1.1-1.59,1.71-2.15c-0.58,1.06-1.01,2.31-1.3,3.73c-0.29,1.42-0.43,2.81-0.43,4.15
	l0.01,0.7L53.03,22.1z M58.26,29.12c0.05-0.04,0.07-0.1,0.07-0.17c0-0.16-0.08-0.24-0.24-0.25c-1.43-0.06-2.41-1.06-2.95-3
	c-0.24-0.89-0.39-1.86-0.42-2.93l0.31,0.01c0.72,0,1.22-0.15,1.52-0.45c0.04-0.05,0.07-0.11,0.07-0.18c0-0.07-0.03-0.12-0.08-0.17
	c-0.05-0.05-0.11-0.07-0.18-0.07s-0.12,0.02-0.17,0.07c-0.23,0.21-0.61,0.32-1.13,0.32c-0.11,0-0.23-0.01-0.35-0.02v-0.07
	c0-1.79,0.2-3.52,0.6-5.17c0.4-1.65,0.94-2.87,1.6-3.66c0.11-0.13,0.16-0.27,0.16-0.43c0-0.19-0.07-0.35-0.22-0.49
	c-0.14-0.11-0.29-0.16-0.44-0.16c-0.11,0-0.23,0.03-0.35,0.1c-1.1,0.5-2.19,1.67-3.26,3.5c-0.74,1.3-1.63,3.17-2.66,5.62l-0.15,0.36
	c-0.53,0.02-1.04,0.12-1.56,0.3s-0.91,0.47-1.19,0.88c-0.04,0.07-0.06,0.14-0.06,0.22c0,0.14,0.06,0.26,0.19,0.34
	c0.08,0.04,0.15,0.07,0.23,0.07c0.14,0,0.26-0.06,0.34-0.19c0.25-0.39,0.52-0.67,0.81-0.83c0.29-0.16,0.63-0.26,1.03-0.29
	c-0.46,1.1-0.92,2.1-1.38,3.01c-0.46,0.91-0.93,1.65-1.4,2.21c-0.48,0.53-0.99,0.8-1.52,0.8c-0.58,0-1.12-0.29-1.62-0.86
	c-0.39-0.44-0.68-0.98-0.88-1.62c-0.12-0.45-0.18-0.88-0.18-1.29c0-0.96,0.34-1.81,1.02-2.54c0.56-0.53,1.09-0.8,1.59-0.8
	c0.14,0,0.28,0.02,0.42,0.07c0.49,0.23,0.73,0.79,0.73,1.67c0,0.07,0.03,0.13,0.07,0.18c0.05,0.05,0.11,0.07,0.17,0.07
	c0.07,0,0.13-0.02,0.18-0.07s0.07-0.1,0.07-0.18c0-0.85-0.2-1.45-0.59-1.82c-0.29-0.27-0.63-0.41-1.03-0.41
	c-0.66,0-1.31,0.32-1.94,0.95c-0.78,0.78-1.16,1.75-1.16,2.91c0,0.46,0.07,0.93,0.2,1.4c0.21,0.69,0.54,1.3,0.98,1.81
	c0.61,0.69,1.28,1.03,2.01,1.03c0.66,0,1.29-0.33,1.87-0.98c0.51-0.6,1.02-1.39,1.5-2.36c0.49-0.97,0.97-2.04,1.46-3.19
	c0.79,0,1.66,0.08,2.63,0.23l0.54,0.07c0.08,1.18,0.29,2.25,0.63,3.22c0.75,2.14,2.06,3.24,3.95,3.31
	C58.15,29.18,58.21,29.16,58.26,29.12 M29.51,23.33c0-0.28,0.04-0.6,0.11-0.97c0.14-0.68,0.38-1.24,0.74-1.68
	c0.25-0.26,0.48-0.4,0.69-0.4c0.06,0,0.11,0.01,0.16,0.03c0.25,0.09,0.46,0.29,0.62,0.6c0.16,0.31,0.29,0.62,0.36,0.93
	c-0.22,0.1-0.42,0.26-0.6,0.47c-0.29,0.34-0.49,0.59-0.6,0.77c-0.5,0.72-0.88,1.07-1.14,1.07C29.62,24.16,29.51,23.89,29.51,23.33
	 M34.72,25.9l0.02-0.02c0.6-0.91,1.08-1.91,1.45-2.99c0.01-0.03,0.02-0.06,0.02-0.09c0-0.11-0.06-0.18-0.17-0.22
	c-0.03-0.01-0.05-0.02-0.08-0.02c-0.1,0-0.18,0.06-0.23,0.17c-0.35,1.04-0.81,2-1.4,2.88h-0.01v0.01c-0.44,0.66-0.85,1.11-1.23,1.35
	c-0.15,0.09-0.27,0.14-0.34,0.14c-0.11,0-0.17-0.09-0.17-0.26c0-0.16,0.01-0.31,0.04-0.47c0.13-0.77,0.36-1.76,0.69-2.97
	c0.46-1.75,0.73-2.93,0.8-3.55v-0.01c0-0.03-0.05-0.04-0.15-0.04c-0.14,0-0.31,0.02-0.51,0.07c-0.45,0.12-0.7,0.27-0.75,0.46
	c-0.04,0.23-0.11,0.51-0.19,0.83c-0.33-0.79-0.68-1.23-1.05-1.34c-0.37-0.11-0.63-0.16-0.8-0.16c-0.38,0-0.75,0.12-1.1,0.38
	c-0.51,0.36-0.86,0.94-1.05,1.73c-0.04,0.22-0.07,0.46-0.07,0.74l0.01,0.36c0.02,0.42,0.14,0.8,0.34,1.15
	c0.14,0.22,0.29,0.39,0.46,0.49c0.17,0.1,0.33,0.15,0.48,0.15c0.09,0,0.19-0.01,0.28-0.04c0.46-0.17,0.93-0.61,1.42-1.33
	c0.28-0.4,0.55-0.71,0.81-0.93c-0.28,1.34-0.42,2.43-0.42,3.28c0,0.93,0.13,1.5,0.38,1.72c0.18,0.15,0.35,0.23,0.5,0.23
	C33.27,27.61,33.94,27.04,34.72,25.9 M20.95,33.35c-0.32-0.53-0.49-1.1-0.49-1.72c0-0.68,0.19-1.35,0.59-1.99
	c0.02-0.01,0.03-0.03,0.04-0.04c0.41-0.65,0.94-1.26,1.59-1.84c0.65-0.57,1.34-1.12,2.06-1.63c-0.38,3.9-0.85,6.32-1.43,7.28
	c-0.35,0.57-0.72,0.86-1.13,0.86C21.75,34.29,21.34,33.98,20.95,33.35 M22.99,24.87c-0.15-0.18-0.24-0.44-0.25-0.76
	c-0.02-0.32-0.02-0.55-0.02-0.67c0-0.41,0.04-0.84,0.12-1.29c0.11-0.57,0.27-1,0.48-1.27c0.21-0.27,0.43-0.41,0.65-0.41
	c0.33,0,0.68,0.19,1.04,0.58c-0.12,0.31-0.24,0.65-0.37,1.02l-0.01,0.02c-0.04,0.14-0.16,0.47-0.36,0.99
	c-0.21,0.56-0.42,1.03-0.64,1.42c-0.18,0.31-0.34,0.46-0.48,0.46C23.09,24.96,23.04,24.93,22.99,24.87 M23.82,33.99
	c0.43-0.46,0.78-1.08,1.04-1.85c0.55-1.7,0.98-4.04,1.3-7.04c1.15-0.84,1.94-1.56,2.35-2.18c0.02-0.04,0.03-0.08,0.03-0.12
	c0-0.09-0.04-0.16-0.11-0.21c-0.04-0.03-0.08-0.04-0.12-0.04c-0.09,0-0.16,0.04-0.21,0.11c-0.4,0.57-1.02,1.16-1.87,1.78
	c0.1-0.99,0.18-1.87,0.24-2.64c0.04-0.54,0.08-0.99,0.12-1.35c-0.02-0.2-0.09-0.32-0.22-0.37c-0.13-0.05-0.24-0.07-0.35-0.07
	c-0.3,0-0.5,0.09-0.62,0.27c-0.07,0.08-0.13,0.19-0.2,0.32c-0.22-0.21-0.45-0.39-0.71-0.53c-0.4-0.21-0.76-0.31-1.08-0.31
	c-0.16,0-0.3,0.02-0.44,0.07c-0.42,0.15-0.75,0.45-0.99,0.88c-0.29,0.53-0.44,1.12-0.44,1.79c0,0.92,0.18,1.68,0.55,2.29
	c0.35,0.5,0.69,0.75,1.02,0.75l0.1-0.01c0.36-0.05,0.65-0.27,0.87-0.64c0.24-0.4,0.46-0.89,0.68-1.48c0.12-0.34,0.24-0.66,0.34-0.96
	l-0.29,3.03c-0.79,0.55-1.56,1.15-2.31,1.79c-0.75,0.64-1.36,1.33-1.84,2.07l-0.02,0.06c-0.44,0.73-0.67,1.49-0.67,2.29
	c0,0.69,0.18,1.34,0.54,1.94c0.5,0.77,1.07,1.15,1.72,1.15C22.79,34.79,23.32,34.53,23.82,33.99 M17.12,21.17
	c0-2.67,0.75-4.81,2.24-6.4c0.41-0.43,0.85-0.65,1.32-0.65c0.09,0,0.17,0.01,0.25,0.03c0.28,0.05,0.44,0.27,0.48,0.65v0.06
	c0,0.26-0.07,0.55-0.2,0.88c-0.34,0.81-0.87,1.68-1.6,2.61v0.01c-0.94,1.21-1.78,2.18-2.5,2.91V21.17z M20.83,25.15l0.02-0.02
	c0.36-0.82,0.6-1.58,0.72-2.27V22.8c0-0.12-0.07-0.2-0.2-0.24h-0.04c-0.05,0-0.1,0.02-0.15,0.05c-0.05,0.03-0.08,0.08-0.09,0.15
	c-0.12,0.65-0.35,1.37-0.69,2.16l-0.02,0.02c-0.28,0.64-0.59,1.17-0.94,1.6c-0.24,0.31-0.47,0.47-0.68,0.47
	c-0.18,0-0.38-0.17-0.58-0.51c-0.25-0.43-0.47-1.05-0.67-1.85c-0.19-0.8-0.32-1.7-0.37-2.69c1.06-1.1,2.01-2.2,2.87-3.31
	c0,0,0-0.01,0.01-0.01c0.74-0.96,1.29-1.87,1.65-2.73c0.16-0.4,0.24-0.76,0.24-1.07c0-0.35-0.09-0.63-0.28-0.83
	c-0.24-0.25-0.6-0.37-1.07-0.37c-0.29,0-0.59,0.05-0.9,0.15c-0.47,0.15-0.88,0.36-1.22,0.63c-1.76,1.43-2.64,3.56-2.64,6.38
	c0,1.41,0.21,2.72,0.62,3.93c0.35,1.06,0.79,1.84,1.31,2.34c0.32,0.31,0.64,0.46,0.95,0.46C19.42,27.51,20.14,26.72,20.83,25.15
	 M7.62,21.03c-0.95-0.58-1.72-1.34-2.29-2.28c-0.55-0.9-0.83-1.8-0.83-2.71c0-0.62,0.13-1.16,0.41-1.63
	c0.33-0.57,0.8-1.01,1.41-1.29c0.49-0.23,1.05-0.35,1.65-0.35c1.32,0,2.34,0.61,3.06,1.84c0.67,1.18,1,2.66,1,4.44
	c0,0.79-0.07,1.6-0.22,2.41c-0.54,0.24-1.08,0.37-1.63,0.37C9.36,21.82,8.51,21.56,7.62,21.03 M6.94,28.95
	c1.18-0.38,2.18-1.06,2.99-2.05c1.1-1.34,1.85-2.99,2.27-4.94c0.84-0.31,1.58-0.84,2.23-1.59c0.07-0.08,0.11-0.17,0.11-0.27
	c0-0.12-0.04-0.22-0.13-0.29c-0.09-0.08-0.18-0.11-0.28-0.11c-0.11,0-0.21,0.05-0.3,0.14c-0.46,0.54-0.95,0.98-1.47,1.32
	c0.11-0.72,0.17-1.43,0.17-2.14c0-1.83-0.36-3.38-1.07-4.65c-0.81-1.39-1.98-2.09-3.5-2.09c-0.68,0-1.29,0.13-1.85,0.4
	c-0.7,0.34-1.24,0.84-1.63,1.51c-0.32,0.57-0.48,1.2-0.48,1.89c0,0.97,0.31,1.95,0.92,2.95c0.61,1,1.43,1.81,2.45,2.43
	c0.96,0.57,1.95,0.85,2.97,0.85c0.47,0,0.91-0.05,1.32-0.15c-0.41,1.75-1.11,3.23-2.08,4.42c-0.76,0.93-1.68,1.58-2.77,1.93
	c-0.4,0.11-0.76,0.17-1.1,0.17c-0.3,0-0.58-0.05-0.84-0.15c-0.95-0.37-1.62-1.26-2.02-2.68c-0.28-1.02-0.42-2.2-0.42-3.55
	c0-0.88,0.06-1.75,0.19-2.61c0.21-1.41,0.53-2.52,0.97-3.34c0.05-0.1,0.07-0.21,0.07-0.31c0-0.26-0.11-0.45-0.33-0.57
	c-0.11-0.06-0.22-0.08-0.33-0.08c-0.24,0-0.43,0.11-0.57,0.33c-0.6,1.14-0.98,2.29-1.13,3.46c-0.15,1.17-0.22,2.07-0.22,2.72
	c0,2.25,0.45,4.05,1.34,5.4c0.82,1.25,1.88,1.87,3.19,1.87C6.02,29.15,6.47,29.08,6.94,28.95"/>
<path class="st3" d="M90.4,25.64c0.15-0.08,0.23-0.2,0.23-0.37c0-0.04-0.01-0.09-0.02-0.13c0-1.06,0.08-1.91,0.24-2.55
	c0-0.01,0-0.02,0.01-0.02c0.12-0.46,0.27-0.83,0.45-1.12c0.09-0.15,0.23-0.33,0.42-0.54c0.23-0.24,0.42-0.37,0.57-0.37
	c0.1,0,0.15,0.08,0.16,0.24c0,0.18-0.02,0.38-0.06,0.61l-0.24,1.28c0.07,0.06,0.16,0.11,0.27,0.15c0.11,0.04,0.22,0.07,0.31,0.07
	c0.27,0,0.52-0.14,0.73-0.42c0.07-0.38,0.11-0.72,0.11-1.03c0-0.97-0.33-1.46-1-1.46c-0.22,0-0.46,0.07-0.71,0.21
	c-0.35,0.17-0.68,0.51-0.99,1.01c-0.33,0.54-0.55,1.25-0.68,2.11l-0.01-0.32c0-0.91,0.15-1.6,0.46-2.05
	c0.08-0.11,0.11-0.24,0.11-0.37c0-0.22-0.09-0.4-0.28-0.54c-0.12-0.08-0.24-0.11-0.37-0.11c-0.23,0-0.41,0.09-0.54,0.28
	c-0.3,0.46-0.46,1.05-0.46,1.77v0.16c0,0.61,0.06,1.17,0.17,1.68c0.28,1.25,0.58,1.87,0.91,1.87C90.28,25.69,90.34,25.67,90.4,25.64
	 M82.51,23.33c0-0.28,0.04-0.6,0.11-0.97c0.13-0.68,0.38-1.24,0.74-1.68c0.25-0.26,0.48-0.4,0.69-0.4c0.05,0,0.11,0.01,0.16,0.03
	c0.25,0.09,0.46,0.29,0.62,0.6c0.17,0.31,0.29,0.62,0.36,0.93c-0.22,0.1-0.42,0.26-0.6,0.47c-0.29,0.34-0.49,0.59-0.6,0.77
	c-0.5,0.72-0.88,1.07-1.14,1.07C82.63,24.16,82.51,23.89,82.51,23.33 M87.72,25.9l0.02-0.02c0.6-0.91,1.09-1.91,1.45-2.99
	c0.01-0.03,0.02-0.06,0.02-0.09c0-0.11-0.06-0.18-0.17-0.22c-0.03-0.01-0.06-0.02-0.08-0.02c-0.1,0-0.18,0.06-0.23,0.17
	c-0.35,1.04-0.81,2-1.4,2.88h-0.01v0.01c-0.45,0.66-0.85,1.11-1.23,1.35c-0.15,0.09-0.26,0.14-0.34,0.14
	c-0.11,0-0.17-0.09-0.17-0.26c0-0.16,0.01-0.31,0.04-0.47c0.13-0.77,0.36-1.76,0.69-2.97c0.46-1.75,0.73-2.93,0.8-3.55v-0.01
	c0-0.03-0.05-0.04-0.15-0.04c-0.14,0-0.31,0.02-0.51,0.07c-0.45,0.12-0.7,0.27-0.75,0.46c-0.04,0.23-0.11,0.51-0.19,0.83
	c-0.33-0.79-0.68-1.23-1.05-1.34c-0.37-0.11-0.63-0.16-0.8-0.16c-0.38,0-0.75,0.12-1.1,0.38c-0.52,0.36-0.87,0.94-1.05,1.73
	c-0.04,0.22-0.07,0.46-0.07,0.74l0.01,0.36c0.02,0.42,0.14,0.8,0.34,1.15c0.13,0.22,0.29,0.39,0.46,0.49
	c0.17,0.1,0.33,0.15,0.48,0.15c0.09,0,0.19-0.01,0.29-0.04c0.46-0.17,0.93-0.61,1.42-1.33c0.28-0.4,0.55-0.71,0.81-0.93
	c-0.28,1.34-0.42,2.43-0.42,3.28c0,0.93,0.13,1.5,0.38,1.72c0.18,0.15,0.34,0.23,0.5,0.23C86.28,27.61,86.95,27.04,87.72,25.9
	 M77.01,21.17c0-2.67,0.75-4.81,2.24-6.4c0.41-0.43,0.85-0.65,1.32-0.65c0.09,0,0.17,0.01,0.25,0.03c0.28,0.05,0.44,0.27,0.48,0.65
	v0.06c0,0.26-0.07,0.55-0.2,0.88c-0.34,0.81-0.87,1.68-1.6,2.61v0.01c-0.94,1.21-1.78,2.18-2.5,2.91V21.17z M80.71,25.15l0.02-0.02
	c0.36-0.82,0.6-1.58,0.72-2.27V22.8c0-0.12-0.07-0.2-0.2-0.24h-0.04c-0.05,0-0.1,0.02-0.15,0.05c-0.05,0.03-0.08,0.08-0.09,0.15
	c-0.12,0.65-0.35,1.37-0.69,2.16l-0.02,0.02c-0.28,0.64-0.59,1.17-0.94,1.6c-0.24,0.31-0.47,0.47-0.68,0.47
	c-0.18,0-0.38-0.17-0.58-0.51c-0.25-0.43-0.47-1.05-0.67-1.85c-0.2-0.8-0.32-1.7-0.37-2.69c1.06-1.1,2.01-2.2,2.87-3.31
	c0,0,0-0.01,0.01-0.01c0.74-0.96,1.29-1.87,1.65-2.73c0.16-0.4,0.24-0.76,0.24-1.07c0-0.35-0.1-0.63-0.29-0.83
	c-0.24-0.25-0.6-0.37-1.07-0.37c-0.29,0-0.59,0.05-0.9,0.15c-0.47,0.15-0.88,0.36-1.22,0.63c-1.76,1.43-2.64,3.56-2.64,6.38
	c0,1.41,0.21,2.72,0.62,3.93c0.35,1.06,0.79,1.84,1.31,2.34c0.32,0.31,0.64,0.46,0.95,0.46C79.3,27.51,80.02,26.72,80.71,25.15
	 M73.85,19.59c0.15-0.15,0.22-0.33,0.22-0.53c0-0.21-0.07-0.39-0.22-0.54c-0.15-0.15-0.33-0.22-0.54-0.22
	c-0.21,0-0.39,0.07-0.54,0.22c-0.15,0.15-0.22,0.33-0.22,0.54c0,0.21,0.07,0.38,0.22,0.53s0.33,0.22,0.54,0.22
	C73.52,19.81,73.7,19.73,73.85,19.59 M74.42,25.9c0.61-0.92,1.1-1.92,1.47-3c0.01-0.03,0.02-0.06,0.02-0.09
	c0-0.11-0.06-0.18-0.17-0.22c-0.03-0.01-0.05-0.02-0.08-0.02c-0.1,0-0.18,0.06-0.23,0.17c-0.35,1.04-0.81,2-1.4,2.88h-0.01v0.01
	c-0.44,0.66-0.85,1.11-1.23,1.35c-0.15,0.09-0.27,0.14-0.34,0.14c-0.11,0-0.17-0.09-0.17-0.26c0-0.16,0.01-0.31,0.04-0.47
	c0.13-0.77,0.36-1.76,0.69-2.97c0.31-1.14,0.55-2.15,0.72-3.04l0.01-0.1c0-0.22-0.14-0.33-0.42-0.33c-0.22,0-0.45,0.06-0.67,0.18
	c-0.15,0.08-0.23,0.15-0.25,0.22c-0.03,0.14-0.06,0.3-0.11,0.46c-0.51,2.11-0.76,3.73-0.76,4.85c0,0.92,0.13,1.49,0.38,1.71
	c0.18,0.15,0.35,0.23,0.5,0.23C72.97,27.61,73.64,27.04,74.42,25.9 M70.39,25.9c0.61-0.92,1.1-1.92,1.46-3l0.01-0.07
	c0-0.12-0.05-0.2-0.16-0.24c-0.03-0.01-0.06-0.02-0.09-0.02c-0.11,0-0.18,0.06-0.22,0.17c-0.35,1.04-0.82,2-1.41,2.88
	c0,0.01,0,0.01-0.01,0.01c-0.44,0.66-0.85,1.11-1.23,1.35c-0.15,0.09-0.26,0.14-0.34,0.14c-0.11,0-0.17-0.1-0.17-0.29
	c0-0.49,0.24-1.64,0.73-3.43c0.32-1.14,0.56-2.15,0.72-3.03l0.01-0.09c0-0.22-0.14-0.33-0.42-0.33c-0.57,0-1.02,0.3-1.34,0.91
	c-0.26,0.5-0.49,1.05-0.68,1.64c-0.35,1.04-0.62,1.55-0.8,1.55c-0.07,0-0.13-0.07-0.19-0.19c-0.15-0.35-0.23-0.75-0.23-1.21
	c0-0.69,0.14-1.29,0.43-1.8c0.05-0.09,0.07-0.18,0.07-0.27c0-0.22-0.1-0.39-0.29-0.51C66.16,20.03,66.07,20,65.98,20
	c-0.22,0-0.39,0.1-0.51,0.29c-0.35,0.62-0.53,1.29-0.53,2.01c0,0.71,0.23,1.33,0.68,1.86c0.23,0.27,0.49,0.4,0.77,0.4
	c0.34,0,0.63-0.25,0.87-0.76c0.15-0.33,0.3-0.71,0.45-1.13c0.1-0.3,0.21-0.6,0.33-0.9c-0.37,1.63-0.55,2.94-0.55,3.92
	c0,0.9,0.13,1.46,0.39,1.68c0.17,0.15,0.34,0.23,0.49,0.23C68.95,27.61,69.62,27.04,70.39,25.9 M57.51,33.35
	c-0.33-0.53-0.49-1.1-0.49-1.72c0-0.68,0.2-1.35,0.59-1.99c0.02-0.01,0.03-0.03,0.04-0.04c0.41-0.65,0.94-1.26,1.59-1.84
	c0.65-0.57,1.34-1.12,2.06-1.63c-0.37,3.9-0.85,6.32-1.43,7.28c-0.35,0.57-0.72,0.86-1.13,0.86C58.31,34.29,57.9,33.98,57.51,33.35
	 M59.56,24.87c-0.15-0.18-0.24-0.44-0.25-0.76c-0.02-0.32-0.02-0.55-0.02-0.67c0-0.41,0.04-0.84,0.12-1.29
	c0.11-0.57,0.27-1,0.48-1.27c0.21-0.27,0.43-0.41,0.65-0.41c0.33,0,0.68,0.19,1.04,0.58c-0.12,0.31-0.24,0.65-0.38,1.02l-0.01,0.02
	c-0.04,0.14-0.16,0.47-0.36,0.99c-0.21,0.56-0.42,1.03-0.64,1.42c-0.18,0.31-0.34,0.46-0.48,0.46
	C59.66,24.96,59.61,24.93,59.56,24.87 M60.38,33.99c0.43-0.46,0.78-1.08,1.04-1.85c0.55-1.7,0.98-4.04,1.3-7.04
	c1.16-0.84,1.94-1.56,2.35-2.18c0.02-0.04,0.03-0.08,0.03-0.12c0-0.09-0.04-0.16-0.11-0.21c-0.04-0.03-0.08-0.04-0.12-0.04
	c-0.09,0-0.16,0.04-0.21,0.11c-0.4,0.57-1.02,1.16-1.87,1.78c0.1-0.99,0.18-1.87,0.25-2.64c0.04-0.54,0.08-0.99,0.12-1.35
	c-0.02-0.2-0.09-0.32-0.22-0.37c-0.13-0.05-0.24-0.07-0.35-0.07c-0.3,0-0.51,0.09-0.62,0.27c-0.07,0.08-0.13,0.19-0.2,0.32
	c-0.22-0.21-0.45-0.39-0.71-0.53c-0.4-0.21-0.76-0.31-1.08-0.31c-0.16,0-0.3,0.02-0.44,0.07c-0.42,0.15-0.75,0.45-0.99,0.88
	c-0.29,0.53-0.44,1.12-0.44,1.79c0,0.92,0.18,1.68,0.54,2.29c0.35,0.5,0.69,0.75,1.02,0.75l0.1-0.01c0.36-0.05,0.65-0.27,0.87-0.64
	c0.24-0.4,0.46-0.89,0.68-1.48c0.12-0.34,0.24-0.66,0.34-0.96l-0.29,3.03c-0.79,0.55-1.56,1.15-2.31,1.79s-1.36,1.33-1.84,2.07
	L57.2,29.4c-0.44,0.73-0.67,1.49-0.67,2.29c0,0.69,0.18,1.34,0.54,1.94c0.5,0.77,1.07,1.15,1.72,1.15
	C59.35,34.79,59.88,34.53,60.38,33.99 M53.03,22.1c-1-0.16-1.83-0.24-2.49-0.24l0.01-0.02l0.06-0.14c0.44-1.04,0.9-2.07,1.38-3.11
	c0.48-1.04,0.98-1.99,1.51-2.87c0.53-0.88,1.1-1.59,1.71-2.15c-0.58,1.06-1.01,2.31-1.3,3.73c-0.29,1.42-0.43,2.81-0.43,4.15
	l0.01,0.7L53.03,22.1z M58.26,29.12c0.05-0.04,0.07-0.1,0.07-0.17c0-0.16-0.08-0.24-0.24-0.25c-1.43-0.06-2.41-1.06-2.95-3
	c-0.24-0.89-0.39-1.86-0.42-2.93l0.31,0.01c0.72,0,1.22-0.15,1.52-0.45c0.04-0.05,0.07-0.11,0.07-0.18c0-0.07-0.03-0.12-0.08-0.17
	c-0.05-0.05-0.11-0.07-0.18-0.07s-0.12,0.02-0.17,0.07c-0.23,0.21-0.61,0.32-1.13,0.32c-0.11,0-0.23-0.01-0.35-0.02v-0.07
	c0-1.79,0.2-3.52,0.6-5.17c0.4-1.65,0.94-2.87,1.6-3.66c0.11-0.13,0.16-0.27,0.16-0.43c0-0.19-0.07-0.35-0.22-0.49
	c-0.14-0.11-0.29-0.16-0.44-0.16c-0.11,0-0.23,0.03-0.35,0.1c-1.1,0.5-2.19,1.67-3.26,3.5c-0.74,1.3-1.63,3.17-2.66,5.62l-0.15,0.36
	c-0.53,0.02-1.04,0.12-1.56,0.3s-0.91,0.47-1.19,0.88c-0.04,0.07-0.06,0.14-0.06,0.22c0,0.14,0.06,0.26,0.19,0.34
	c0.08,0.04,0.15,0.07,0.23,0.07c0.14,0,0.26-0.06,0.34-0.19c0.25-0.39,0.52-0.67,0.81-0.83c0.29-0.16,0.63-0.26,1.03-0.29
	c-0.46,1.1-0.92,2.1-1.38,3.01c-0.46,0.91-0.93,1.65-1.4,2.21c-0.48,0.53-0.99,0.8-1.52,0.8c-0.58,0-1.12-0.29-1.62-0.86
	c-0.39-0.44-0.68-0.98-0.88-1.62c-0.12-0.45-0.18-0.88-0.18-1.29c0-0.96,0.34-1.81,1.02-2.54c0.56-0.53,1.09-0.8,1.59-0.8
	c0.14,0,0.28,0.02,0.42,0.07c0.49,0.23,0.73,0.79,0.73,1.67c0,0.07,0.03,0.13,0.07,0.18c0.05,0.05,0.11,0.07,0.17,0.07
	c0.07,0,0.13-0.02,0.18-0.07s0.07-0.1,0.07-0.18c0-0.85-0.2-1.45-0.59-1.82c-0.29-0.27-0.63-0.41-1.03-0.41
	c-0.66,0-1.31,0.32-1.94,0.95c-0.78,0.78-1.16,1.75-1.16,2.91c0,0.46,0.07,0.93,0.2,1.4c0.21,0.69,0.54,1.3,0.98,1.81
	c0.61,0.69,1.28,1.03,2.01,1.03c0.66,0,1.29-0.33,1.87-0.98c0.51-0.6,1.02-1.39,1.5-2.36c0.49-0.97,0.97-2.04,1.46-3.19
	c0.79,0,1.66,0.08,2.63,0.23l0.54,0.07c0.08,1.18,0.29,2.25,0.63,3.22c0.75,2.14,2.06,3.24,3.95,3.31
	C58.15,29.18,58.21,29.16,58.26,29.12 M29.51,23.33c0-0.28,0.04-0.6,0.11-0.97c0.14-0.68,0.38-1.24,0.74-1.68
	c0.25-0.26,0.48-0.4,0.69-0.4c0.06,0,0.11,0.01,0.16,0.03c0.25,0.09,0.46,0.29,0.62,0.6c0.16,0.31,0.29,0.62,0.36,0.93
	c-0.22,0.1-0.42,0.26-0.6,0.47c-0.29,0.34-0.49,0.59-0.6,0.77c-0.5,0.72-0.88,1.07-1.14,1.07C29.62,24.16,29.51,23.89,29.51,23.33
	 M34.72,25.9l0.02-0.02c0.6-0.91,1.08-1.91,1.45-2.99c0.01-0.03,0.02-0.06,0.02-0.09c0-0.11-0.06-0.18-0.17-0.22
	c-0.03-0.01-0.05-0.02-0.08-0.02c-0.1,0-0.18,0.06-0.23,0.17c-0.35,1.04-0.81,2-1.4,2.88h-0.01v0.01c-0.44,0.66-0.85,1.11-1.23,1.35
	c-0.15,0.09-0.27,0.14-0.34,0.14c-0.11,0-0.17-0.09-0.17-0.26c0-0.16,0.01-0.31,0.04-0.47c0.13-0.77,0.36-1.76,0.69-2.97
	c0.46-1.75,0.73-2.93,0.8-3.55v-0.01c0-0.03-0.05-0.04-0.15-0.04c-0.14,0-0.31,0.02-0.51,0.07c-0.45,0.12-0.7,0.27-0.75,0.46
	c-0.04,0.23-0.11,0.51-0.19,0.83c-0.33-0.79-0.68-1.23-1.05-1.34c-0.37-0.11-0.63-0.16-0.8-0.16c-0.38,0-0.75,0.12-1.1,0.38
	c-0.51,0.36-0.86,0.94-1.05,1.73c-0.04,0.22-0.07,0.46-0.07,0.74l0.01,0.36c0.02,0.42,0.14,0.8,0.34,1.15
	c0.14,0.22,0.29,0.39,0.46,0.49c0.17,0.1,0.33,0.15,0.48,0.15c0.09,0,0.19-0.01,0.28-0.04c0.46-0.17,0.93-0.61,1.42-1.33
	c0.28-0.4,0.55-0.71,0.81-0.93c-0.28,1.34-0.42,2.43-0.42,3.28c0,0.93,0.13,1.5,0.38,1.72c0.18,0.15,0.35,0.23,0.5,0.23
	C33.27,27.61,33.94,27.04,34.72,25.9 M20.95,33.35c-0.32-0.53-0.49-1.1-0.49-1.72c0-0.68,0.19-1.35,0.59-1.99
	c0.02-0.01,0.03-0.03,0.04-0.04c0.41-0.65,0.94-1.26,1.59-1.84c0.65-0.57,1.34-1.12,2.06-1.63c-0.38,3.9-0.85,6.32-1.43,7.28
	c-0.35,0.57-0.72,0.86-1.13,0.86C21.75,34.29,21.34,33.98,20.95,33.35 M22.99,24.87c-0.15-0.18-0.24-0.44-0.25-0.76
	c-0.02-0.32-0.02-0.55-0.02-0.67c0-0.41,0.04-0.84,0.12-1.29c0.11-0.57,0.27-1,0.48-1.27c0.21-0.27,0.43-0.41,0.65-0.41
	c0.33,0,0.68,0.19,1.04,0.58c-0.12,0.31-0.24,0.65-0.37,1.02l-0.01,0.02c-0.04,0.14-0.16,0.47-0.36,0.99
	c-0.21,0.56-0.42,1.03-0.64,1.42c-0.18,0.31-0.34,0.46-0.48,0.46C23.09,24.96,23.04,24.93,22.99,24.87 M23.82,33.99
	c0.43-0.46,0.78-1.08,1.04-1.85c0.55-1.7,0.98-4.04,1.3-7.04c1.15-0.84,1.94-1.56,2.35-2.18c0.02-0.04,0.03-0.08,0.03-0.12
	c0-0.09-0.04-0.16-0.11-0.21c-0.04-0.03-0.08-0.04-0.12-0.04c-0.09,0-0.16,0.04-0.21,0.11c-0.4,0.57-1.02,1.16-1.87,1.78
	c0.1-0.99,0.18-1.87,0.24-2.64c0.04-0.54,0.08-0.99,0.12-1.35c-0.02-0.2-0.09-0.32-0.22-0.37c-0.13-0.05-0.24-0.07-0.35-0.07
	c-0.3,0-0.5,0.09-0.62,0.27c-0.07,0.08-0.13,0.19-0.2,0.32c-0.22-0.21-0.45-0.39-0.71-0.53c-0.4-0.21-0.76-0.31-1.08-0.31
	c-0.16,0-0.3,0.02-0.44,0.07c-0.42,0.15-0.75,0.45-0.99,0.88c-0.29,0.53-0.44,1.12-0.44,1.79c0,0.92,0.18,1.68,0.55,2.29
	c0.35,0.5,0.69,0.75,1.02,0.75l0.1-0.01c0.36-0.05,0.65-0.27,0.87-0.64c0.24-0.4,0.46-0.89,0.68-1.48c0.12-0.34,0.24-0.66,0.34-0.96
	l-0.29,3.03c-0.79,0.55-1.56,1.15-2.31,1.79c-0.75,0.64-1.36,1.33-1.84,2.07l-0.02,0.06c-0.44,0.73-0.67,1.49-0.67,2.29
	c0,0.69,0.18,1.34,0.54,1.94c0.5,0.77,1.07,1.15,1.72,1.15C22.79,34.79,23.32,34.53,23.82,33.99 M17.12,21.17
	c0-2.67,0.75-4.81,2.24-6.4c0.41-0.43,0.85-0.65,1.32-0.65c0.09,0,0.17,0.01,0.25,0.03c0.28,0.05,0.44,0.27,0.48,0.65v0.06
	c0,0.26-0.07,0.55-0.2,0.88c-0.34,0.81-0.87,1.68-1.6,2.61v0.01c-0.94,1.21-1.78,2.18-2.5,2.91V21.17z M20.83,25.15l0.02-0.02
	c0.36-0.82,0.6-1.58,0.72-2.27V22.8c0-0.12-0.07-0.2-0.2-0.24h-0.04c-0.05,0-0.1,0.02-0.15,0.05c-0.05,0.03-0.08,0.08-0.09,0.15
	c-0.12,0.65-0.35,1.37-0.69,2.16l-0.02,0.02c-0.28,0.64-0.59,1.17-0.94,1.6c-0.24,0.31-0.47,0.47-0.68,0.47
	c-0.18,0-0.38-0.17-0.58-0.51c-0.25-0.43-0.47-1.05-0.67-1.85c-0.19-0.8-0.32-1.7-0.37-2.69c1.06-1.1,2.01-2.2,2.87-3.31
	c0,0,0-0.01,0.01-0.01c0.74-0.96,1.29-1.87,1.65-2.73c0.16-0.4,0.24-0.76,0.24-1.07c0-0.35-0.09-0.63-0.28-0.83
	c-0.24-0.25-0.6-0.37-1.07-0.37c-0.29,0-0.59,0.05-0.9,0.15c-0.47,0.15-0.88,0.36-1.22,0.63c-1.76,1.43-2.64,3.56-2.64,6.38
	c0,1.41,0.21,2.72,0.62,3.93c0.35,1.06,0.79,1.84,1.31,2.34c0.32,0.31,0.64,0.46,0.95,0.46C19.42,27.51,20.14,26.72,20.83,25.15
	 M7.62,21.03c-0.95-0.58-1.72-1.34-2.29-2.28c-0.55-0.9-0.83-1.8-0.83-2.71c0-0.62,0.13-1.16,0.41-1.63
	c0.33-0.57,0.8-1.01,1.41-1.29c0.49-0.23,1.05-0.35,1.65-0.35c1.32,0,2.34,0.61,3.06,1.84c0.67,1.18,1,2.66,1,4.44
	c0,0.79-0.07,1.6-0.22,2.41c-0.54,0.24-1.08,0.37-1.63,0.37C9.36,21.82,8.51,21.56,7.62,21.03 M6.94,28.95
	c1.18-0.38,2.18-1.06,2.99-2.05c1.1-1.34,1.85-2.99,2.27-4.94c0.84-0.31,1.58-0.84,2.23-1.59c0.07-0.08,0.11-0.17,0.11-0.27
	c0-0.12-0.04-0.22-0.13-0.29c-0.09-0.08-0.18-0.11-0.28-0.11c-0.11,0-0.21,0.05-0.3,0.14c-0.46,0.54-0.95,0.98-1.47,1.32
	c0.11-0.72,0.17-1.43,0.17-2.14c0-1.83-0.36-3.38-1.07-4.65c-0.81-1.39-1.98-2.09-3.5-2.09c-0.68,0-1.29,0.13-1.85,0.4
	c-0.7,0.34-1.24,0.84-1.63,1.51c-0.32,0.57-0.48,1.2-0.48,1.89c0,0.97,0.31,1.95,0.92,2.95c0.61,1,1.43,1.81,2.45,2.43
	c0.96,0.57,1.95,0.85,2.97,0.85c0.47,0,0.91-0.05,1.32-0.15c-0.41,1.75-1.11,3.23-2.08,4.42c-0.76,0.93-1.68,1.58-2.77,1.93
	c-0.4,0.11-0.76,0.17-1.1,0.17c-0.3,0-0.58-0.05-0.84-0.15c-0.95-0.37-1.62-1.26-2.02-2.68c-0.28-1.02-0.42-2.2-0.42-3.55
	c0-0.88,0.06-1.75,0.19-2.61c0.21-1.41,0.53-2.52,0.97-3.34c0.05-0.1,0.07-0.21,0.07-0.31c0-0.26-0.11-0.45-0.33-0.57
	c-0.11-0.06-0.22-0.08-0.33-0.08c-0.24,0-0.43,0.11-0.57,0.33c-0.6,1.14-0.98,2.29-1.13,3.46c-0.15,1.17-0.22,2.07-0.22,2.72
	c0,2.25,0.45,4.05,1.34,5.4c0.82,1.25,1.88,1.87,3.19,1.87C6.02,29.15,6.47,29.08,6.94,28.95"/>
</svg>
